<svg aria-hidden="true" style="position: absolute; width: 0; height: 0; overflow: hidden;" version="1.1" xmlns="http://www.w3.org/2000/svg" xmlns:xlink="http://www.w3.org/1999/xlink">
<defs>
<symbol id="mob_menu" viewBox="0 0 32 32">
<path stroke-linejoin="round" stroke-linecap="butt" stroke-miterlimit="4" stroke-width="2.2857" d="M4 16h24M4 8h24M4 24h24"></path>
</symbol>
<symbol id="tablet_menu" viewBox="0 0 46 32">
<path stroke-linejoin="round" stroke-linecap="butt" stroke-miterlimit="4" stroke-width="4.3243" d="M2.162 16h41.514M2.162 2.162h41.514M2.162 29.838h41.514"></path>
</symbol>
<symbol id="chocolate-bar" viewBox="0 0 32 32">
<path  d="M13.822 2.413l7.527 7.536 0.080-0.080c0.157-0.154 0.369-0.242 0.589-0.244s0.433 0.080 0.594 0.231l0.006 0.006 0.867 0.867c0.305 0.305 0.315 0.77 0.083 1.094l-0.004 0.007-0.143 0.192 6.16 6.16c0.55 0.55 0.55 1.43 0 1.98l-9.43 9.43c-0.55 0.55-1.43 0.55-1.98 0l-4.447-4.447c-0.074 0.093-0.166 0.169-0.272 0.224s-0.222 0.087-0.34 0.093c-0.119 0.007-0.237-0.012-0.348-0.054s-0.212-0.108-0.295-0.192l-2.6-2.6c-0.154-0.158-0.242-0.369-0.244-0.589s0.080-0.434 0.231-0.595l0.006-0.007 0.077-0.076-7.527-7.527c-0.55-0.55-0.55-1.43 0-1.98l9.43-9.43c0.55-0.55 1.43-0.55 1.98 0v0.001zM20.404 10.893l-1.756-1.755c-0.055-0.057-0.121-0.102-0.194-0.133s-0.151-0.047-0.23-0.047c-0.079 0-0.158 0.016-0.231 0.047s-0.139 0.076-0.194 0.133l-3.58 3.58c-0.057 0.056-0.102 0.123-0.132 0.197s-0.046 0.153-0.046 0.233c0 0.080 0.016 0.159 0.046 0.233s0.076 0.141 0.132 0.197l1.749 1.749 0.61-0.61-1.565-1.565 3.21-3.22 1.569 1.574 0.613-0.613zM15.328 15.965l-1.754-1.754c-0.055-0.057-0.122-0.102-0.194-0.133s-0.151-0.047-0.231-0.047c-0.079 0-0.158 0.016-0.23 0.047s-0.139 0.076-0.194 0.133l-3.59 3.59c-0.24 0.23-0.24 0.61 0 0.85l1.752 1.752 0.616-0.616-1.57-1.564 3.22-3.21 1.564 1.563 0.612-0.611zM8.822 8.193l3.58 3.58c0.24 0.24 0.62 0.24 0.85-0.010l3.58-3.58c0.057-0.054 0.102-0.119 0.133-0.192s0.047-0.15 0.047-0.229h0.010c0-0.15-0.060-0.31-0.18-0.43l-3.58-3.58c-0.057-0.057-0.123-0.102-0.197-0.133s-0.153-0.047-0.233-0.047c-0.080 0-0.159 0.016-0.233 0.047s-0.141 0.076-0.197 0.133l-3.58 3.59c-0.24 0.23-0.24 0.61 0 0.85zM3.752 13.263l3.58 3.58c0.24 0.24 0.62 0.24 0.85 0l3.58-3.58c0.058-0.055 0.104-0.122 0.135-0.196s0.046-0.154 0.045-0.234h0.010c0-0.16-0.060-0.31-0.18-0.43l-3.58-3.58c-0.055-0.057-0.121-0.102-0.194-0.133s-0.151-0.047-0.23-0.047c-0.080 0-0.158 0.016-0.231 0.047s-0.139 0.076-0.194 0.133l-3.59 3.59c-0.24 0.23-0.24 0.61 0 0.85zM10.685 22.017l2.362 2.363 9.636-13.040-0.655-0.655-11.343 11.332z"></path>
<path  d="M13.822 2.413l7.527 7.536 0.080-0.080c0.157-0.154 0.369-0.242 0.589-0.244s0.433 0.080 0.594 0.231l0.006 0.006 0.867 0.867c0.305 0.305 0.315 0.77 0.083 1.094l-0.004 0.007-0.143 0.192 6.16 6.16c0.55 0.55 0.55 1.43 0 1.98l-9.43 9.43c-0.55 0.55-1.43 0.55-1.98 0l-4.447-4.447c-0.074 0.093-0.166 0.169-0.272 0.224s-0.222 0.087-0.34 0.093c-0.119 0.007-0.237-0.012-0.348-0.054s-0.212-0.108-0.295-0.192l-2.6-2.6c-0.154-0.158-0.242-0.369-0.244-0.589s0.080-0.434 0.231-0.595l0.006-0.007 0.077-0.076-7.527-7.527c-0.55-0.55-0.55-1.43 0-1.98l9.43-9.43c0.55-0.55 1.43-0.55 1.98 0v0.001zM20.404 10.893l-1.756-1.755c-0.055-0.057-0.121-0.102-0.194-0.133s-0.151-0.047-0.23-0.047c-0.079 0-0.158 0.016-0.231 0.047s-0.139 0.076-0.194 0.133l-3.58 3.58c-0.057 0.056-0.102 0.123-0.132 0.197s-0.046 0.153-0.046 0.233c0 0.080 0.016 0.159 0.046 0.233s0.076 0.141 0.132 0.197l1.749 1.749 0.61-0.61-1.565-1.565 3.21-3.22 1.569 1.574 0.613-0.613zM15.328 15.965l-1.754-1.754c-0.055-0.057-0.122-0.102-0.194-0.133s-0.151-0.047-0.231-0.047c-0.079 0-0.158 0.016-0.23 0.047s-0.139 0.076-0.194 0.133l-3.59 3.59c-0.24 0.23-0.24 0.61 0 0.85l1.752 1.752 0.616-0.616-1.57-1.564 3.22-3.21 1.564 1.563 0.612-0.611zM8.822 8.193l3.58 3.58c0.24 0.24 0.62 0.24 0.85-0.010l3.58-3.58c0.057-0.054 0.102-0.119 0.133-0.192s0.047-0.15 0.047-0.229h0.010c0-0.15-0.060-0.31-0.18-0.43l-3.58-3.58c-0.057-0.057-0.123-0.102-0.197-0.133s-0.153-0.047-0.233-0.047c-0.080 0-0.159 0.016-0.233 0.047s-0.141 0.076-0.197 0.133l-3.58 3.59c-0.24 0.23-0.24 0.61 0 0.85zM3.752 13.263l3.58 3.58c0.24 0.24 0.62 0.24 0.85 0l3.58-3.58c0.058-0.055 0.104-0.122 0.135-0.196s0.046-0.154 0.045-0.234h0.010c0-0.16-0.060-0.31-0.18-0.43l-3.58-3.58c-0.055-0.057-0.121-0.102-0.194-0.133s-0.151-0.047-0.23-0.047c-0.080 0-0.158 0.016-0.231 0.047s-0.139 0.076-0.194 0.133l-3.59 3.59c-0.24 0.23-0.24 0.61 0 0.85zM10.685 22.017l2.362 2.363 9.636-13.040-0.655-0.655-11.343 11.332z"></path>
</symbol>
<symbol id="coin" viewBox="0 0 32 32">
<path  d="M16 2.667c-7.334 0-13.334 6-13.334 13.333s6 13.334 13.334 13.334c7.333 0 13.333-6 13.333-13.334s-6-13.333-13.333-13.333zM16 26.667c-5.867 0-10.667-4.8-10.667-10.667s4.8-10.666 10.667-10.666c5.867 0 10.666 4.8 10.666 10.666s-4.8 10.667-10.666 10.667z"></path>
<path  d="M17.733 14.667h-3.467c-0.666 0-1.2-0.533-1.2-1.2s0.534-1.2 1.2-1.2h4.933c0.8 0 1.334-0.533 1.334-1.333s-0.533-1.333-1.334-1.333h-1.867v-1.2c0-0.8-0.533-1.333-1.333-1.333s-1.334 0.533-1.334 1.333v1.2h-0.4c-2.133 0-3.867 1.733-3.867 3.867s1.733 3.867 3.867 3.867h3.334c0.666 0 1.2 0.533 1.2 1.2s-0.533 1.2-1.2 1.2h-4.934c-0.8 0-1.334 0.533-1.334 1.333s0.534 1.333 1.334 1.333h2v1.2c0 0.8 0.533 1.333 1.334 1.333s1.333-0.533 1.333-1.333v-1.2h0.4c2.133 0 3.867-1.733 3.867-3.867s-1.733-3.867-3.867-3.867z"></path>
</symbol>
<symbol id="done" viewBox="0 0 62 32">
<path  d="M34.399 21.796c-0.416 0.418-0.908 0.75-1.452 0.977-0.544 0.226-1.126 0.342-1.716 0.342s-1.171-0.116-1.716-0.342c-0.544-0.227-1.038-0.558-1.452-0.977l-20.431-20.476c-0.416-0.418-0.908-0.75-1.452-0.977s-1.126-0.343-1.716-0.343c-0.589 0-1.171 0.116-1.716 0.343s-1.038 0.558-1.452 0.977c-0.832 0.835-1.297 1.966-1.297 3.145s0.466 2.309 1.297 3.145l20.476 20.476c2.509 2.506 5.91 3.914 9.458 3.914 3.545 0 6.948-1.408 9.458-3.914l20.476-20.476c0.824-0.83 1.288-1.952 1.293-3.122 0.005-0.588-0.109-1.169-0.33-1.713-0.223-0.543-0.549-1.037-0.962-1.454-0.416-0.418-0.908-0.75-1.452-0.977s-1.126-0.343-1.715-0.343c-0.589 0-1.171 0.116-1.716 0.343s-1.038 0.558-1.452 0.977l-20.431 20.476z"></path>
<symbol id="twitter" viewBox="0 0 39 32">
<path stroke-linejoin="round" stroke-linecap="butt" stroke-miterlimit="4" stroke-width="3.2090" d="M31.865 4.076c-0.966-1.111-2.25-1.899-3.679-2.256s-2.932-0.268-4.307 0.257c-1.376 0.525-2.557 1.46-3.384 2.679s-1.26 2.661-1.24 4.133v1.604c-2.82 0.073-5.613-0.552-8.133-1.82s-5.489-4.288-7.11-6.596c0 0-5.616 15.589 8.825 22.007-3.305 2.243-7.241 3.368-11.232 3.209 14.441 8.023 32.090 0 32.090-18.452-0.002-0.447-0.045-0.893-0.129-1.331 1.637-1.615 2.793-3.654 3.338-5.889-1.536 1.084-3.238 1.913-5.038 2.455z"></path>
</symbol>
<symbol id="x-close" viewBox="0 0 32 32">
<path  d="M24 8l-16 16"></path>
<path  d="M8 8l16 16"></path>
</symbol>
<symbol id="instagram" viewBox="0 0 32 32">
<path stroke-linejoin="round" stroke-linecap="butt" stroke-miterlimit="4" stroke-width="2.6667" d="M22.667 2.667c3.682 0 6.667 2.985 6.667 6.667v13.333c0 3.682-2.985 6.667-6.667 6.667h-13.333c-3.682 0-6.667-2.985-6.667-6.667v-13.333c0-3.682 2.985-6.667 6.667-6.667h13.333z"></path>
<path stroke-linejoin="round" stroke-linecap="butt" stroke-miterlimit="4" stroke-width="2.6667" d="M20.792 18.399c-0.516 0.996-1.334 1.803-2.336 2.308s-2.137 0.68-3.245 0.502c-1.108-0.178-2.131-0.701-2.924-1.494s-1.316-1.816-1.494-2.924-0.003-2.243 0.502-3.245c0.504-1.002 1.312-1.82 2.307-2.336s2.129-0.706 3.239-0.542c1.131 0.168 2.18 0.695 2.989 1.505s1.337 1.857 1.504 2.989c0.165 1.11-0.025 2.243-0.542 3.239z"></path>
<path stroke-linejoin="round" stroke-linecap="round" stroke-miterlimit="4" stroke-width="2.6667" d="M23.333 8.667h0.013"></path>
</symbol>
<symbol id="spoon" viewBox="0 0 32 32">
<path  d="M15.451 14.106c-0.782-0.95-1.176-2.116-1.176-3.282 0-4.324 5.181-8.642 10.362-8.642 2.861 0 5.181 2.321 5.181 5.182 0 5.182-4.317 10.364-8.646 10.364-1.166 0-2.331-0.394-3.281-1.177l-12.758 12.761c-0.674 0.674-1.77 0.674-2.445 0s-0.674-1.771 0-2.445l12.764-12.761z"></path>
</symbol>
<symbol id="logo" viewBox="0 0 32 32">
<path fill="#fcf1e0" style="fill: var(--color3, #fcf1e0)" d="M14.721 2.651l-10.777 17.424 12.839 8.063 8.88-14.077-2.010-3.28-0.057-3.314-8.236-5.491-0.64 0.674z"></path>
<path fill="none" stroke="#fd9222" style="stroke: var(--color2, #fd9222)" stroke-linejoin="round" stroke-linecap="butt" stroke-miterlimit="4" stroke-width="2.7429" d="M24.898 8.197l-9.626-6.015-11.735 19.25 14.185 8.864 9.454-15.507c-3.040-1.9-4.234-3.384-2.278-6.592zM21.635 23.879l-14.186-8.864M11.361 8.599l14.186 8.864M10.63 25.864l11.735-19.25"></path>
</symbol>
</defs>
</svg>
